PathFileType	4	(X/Y/Z)	/Users/itak/Documents/Research/Walk-IL/dataset/trc/00349_00011.trc
DataRate	CameraRate	NumFrames	NumMarkers	Units	OrigDataRate	OrigDataStartFrame	OrigNumFrames
100.000000	100.000000	4	59	mm	100.000000	163	654
Frame#	Time	RPSI			LPSI			L3			STRN			T10			C7			CLAV			RBAK			LBAK			LSHO			LUPA			LAEL			LAOL			LWTS			LWPS			LFRA			LIFD			LHPS			LHTS			RSHO			RUPA			RAEL			RAOL			RWTS			RWPS			RFRA			RHTS			RHPS			RBHD			LFHD			RFHD			LBHD			RASI			LASI			LKNE			LTHI			LANK			LTIP			LTOE			LMT1			LMT5			LHEE			RKNE			RANK			RTIP			RTOE			RMT1			RMT5			RHEE			RIFD			LHIP			RTHI			RHIP			*53			*54			*55			*56			*57			*58			
		X1	Y1	Z1	X2	Y2	Z2	X3	Y3	Z3	X4	Y4	Z4	X5	Y5	Z5	X6	Y6	Z6	X7	Y7	Z7	X8	Y8	Z8	X9	Y9	Z9	X10	Y10	Z10	X11	Y11	Z11	X12	Y12	Z12	X13	Y13	Z13	X14	Y14	Z14	X15	Y15	Z15	X16	Y16	Z16	X17	Y17	Z17	X18	Y18	Z18	X19	Y19	Z19	X20	Y20	Z20	X21	Y21	Z21	X22	Y22	Z22	X23	Y23	Z23	X24	Y24	Z24	X25	Y25	Z25	X26	Y26	Z26	X27	Y27	Z27	X28	Y28	Z28	X29	Y29	Z29	X30	Y30	Z30	X31	Y31	Z31	X32	Y32	Z32	X33	Y33	Z33	X34	Y34	Z34	X35	Y35	Z35	X36	Y36	Z36	X37	Y37	Z37	X38	Y38	Z38	X39	Y39	Z39	X40	Y40	Z40	X41	Y41	Z41	X42	Y42	Z42	X43	Y43	Z43	X44	Y44	Z44	X45	Y45	Z45	X46	Y46	Z46	X47	Y47	Z47	X48	Y48	Z48	X49	Y49	Z49	X50	Y50	Z50	X51	Y51	Z51	X52	Y52	Z52	X53	Y53	Z53	X54	Y54	Z54	X55	Y55	Z55	X56	Y56	Z56	X57	Y57	Z57	X58	Y58	Z58	X59	Y59	Z59	

164	1.63	-389.8865966796875	947.4285888671875	635.723876953125	-516.7079467773438	961.9650268554688	663.161865234375	-452.0271911621094	1016.242980957031	649.9608154296875	-507.1561584472656	1204.006713867188	425.8642272949219	-463.2511596679688	1135.70849609375	660.9403076171875	-488.5706176757812	1384.143310546875	624.68408203125	-504.6790466308594	1329.1044921875	470.1497497558594	-413.6795043945312	1244.506591796875	660.1810302734375	-587.1281127929688	1346.2275390625	650.1405639648438	-654.741943359375	1365.235107421875	574.3187866210938	-722.1653442382812	1248.771606445312	604.3595581054688	-748.9524536132812	1045.316650390625	597.7628173828125	-681.0637817382812	1030.75341796875	646.3449096679688	-738.9320068359375	797.9404296875	504.5423583984375	-785.1340942382812	792.3562622070312	556.5091552734375	-764.0614013671875	941.6919555664062	589.0529174804688	-737.3110961914062	641.0697631835938	506.0398254394531	-782.7144165039062	722.0106811523438	562.2838134765625	-761.7704467773438	719.9505615234375	500.8395385742188	-335.3940734863281	1374.103393554688	546.6607055664062	-270.4567260742188	1311.690307617188	552.1907348632812	-217.8809051513672	1049.033813476562	559.2559814453125	-304.8734741210938	1036.025146484375	592.43896484375	-233.0516052246094	815.6301879882812	452.7399291992188	-169.3601379394531	808.5053100585938	495.3215026855469	-200.5291442871094	982.4561767578125	537.8138427734375	-205.1130981445312	715.4146118164062	430.3784790039062	-161.9218597412109	724.124755859375	484.15869140625	-403.3233947753906	1584.63916015625	563.6358642578125	-544.7910766601562	1603.134521484375	411.9915161132812	-444.1572875976562	1596.463623046875	406.6322937011719	-543.6488647460938	1589.8203125	598.6393432617188	-367.1691284179688	922.1038818359375	440.2294921875	-604.5076293945312	939.9600219726562	468.7698059082031	-689.9677734375	468.0931091308594	467.5010375976562	-684.8026733398438	606.8500366210938	500.9049377441406	-691.4959106445312	47.07370376586914	563.4400634765625	-702.776611328125	250.29052734375	509.2313232421875	-682.9392700195312	44.29990386962891	348.089111328125	-625.4672241210938	30.70606231689453	404.2108764648438	-733.5474853515625	41.67242431640625	443.9617004394531	-617.8490600585938	40.83185958862305	578.9762573242188	-376.0798034667969	438.5457153320312	437.5592651367188	-292.9106140136719	216.8964233398438	775.44189453125	-366.4009704589844	342.4253540039062	510.201416015625	-369.4512634277344	36.00854873657227	734.49951171875	-396.1008605957031	85.43022918701172	773.4017333984375	-284.286376953125	116.6655960083008	745.4821166992188	-330.9679565429688	262.1150207519531	810.6904296875	-205.6040191650391	643.7816162109375	450.5885925292969	-641.3804931640625	918.1642456054688	598.8207397460938	-341.2389221191406	683.0165405273438	437.5367126464844	-306.405517578125	885.4022216796875	534.0067138671875	nan	nan	nan	nan	nan	nan	nan	nan	nan	nan	nan	nan	nan	nan	nan	nan	nan	nan	
165	1.64	-394.9861755371094	948.0646362304688	630.7656860351562	-522.0701904296875	963.115966796875	656.1839599609375	-458.0168762207031	1017.817260742188	644.6082153320312	-508.5557861328125	1204.939331054688	418.5101623535156	-469.8930969238281	1137.017578125	654.1795654296875	-494.5696716308594	1385.482666015625	617.2971801757812	-507.2543334960938	1330.1279296875	462.5036010742188	-420.2354431152344	1245.822265625	654.3802490234375	-593.5699462890625	1347.510620117188	640.72998046875	-659.5143432617188	1366.395263671875	563.3049926757812	-727.9537353515625	1250.228637695312	591.6951293945312	-756.0410766601562	1046.968872070312	584.0702514648438	-689.6758422851562	1031.902709960938	634.5535888671875	-744.6734008789062	799.783935546875	490.6960144042969	-792.5633544921875	794.4366455078125	541.2376708984375	-771.4813232421875	943.4818725585938	574.7149047851562	-743.7887573242188	642.6903076171875	492.0746765136719	-790.7059936523438	723.9343872070312	546.85205078125	-768.0693359375	721.985107421875	486.0338134765625	-339.7003173828125	1375.546997070312	542.4646606445312	-274.8673706054688	1313.29150390625	549.5911865234375	-221.5526275634766	1050.91162109375	558.7025146484375	-309.2069396972656	1037.753540039062	589.96435546875	-233.9675598144531	817.3936157226562	452.1360778808594	-171.3801879882812	810.155029296875	496.2692565917969	-203.5707702636719	984.2531127929688	537.8355712890625	-205.5659027099609	717.178955078125	430.3691101074219	-163.5781860351562	725.8434448242188	485.0883178710938	-408.1429748535156	1585.918823242188	557.6414184570312	-547.3048706054688	1604.36328125	403.8510131835938	-446.6432189941406	1597.862548828125	400.0139465332031	-549.0367431640625	1590.7841796875	590.517578125	-369.7372741699219	923.5693359375	435.4068298339844	-607.59033203125	940.7788696289062	460.683349609375	-691.5562133789062	467.6722106933594	465.0559997558594	-687.0005493164062	606.7882690429688	496.6956176757812	-691.5523681640625	47.02859878540039	563.4360961914062	-703.7866821289062	250.0640563964844	508.3577270507812	-682.9684448242188	44.26786422729492	348.1220397949219	-625.4571533203125	30.72042465209961	404.2225646972656	-733.5957641601562	41.55282974243164	443.9378662109375	-617.879638671875	40.89042282104492	579.002197265625	-381.3331909179688	441.8833312988281	422.6452026367188	-304.2926025390625	221.03076171875	762.0435791015625	-373.3235168457031	345.3954772949219	495.1219482421875	-376.8885803222656	39.00396728515625	717.2265014648438	-405.7094421386719	88.15437316894531	756.1897583007812	-293.7150268554688	121.2999267578125	731.348876953125	-343.7319946289062	265.3683471679688	796.9613037109375	-206.5207977294922	645.5326538085938	450.510498046875	-645.9276733398438	919.1279296875	590.331298828125	-344.3898315429688	685.4121704101562	429.294921875	-310.7850646972656	886.0532836914062	529.588134765625	nan	nan	nan	nan	nan	nan	nan	nan	nan	nan	nan	nan	nan	nan	nan	nan	nan	nan	
166	1.65	-399.8595886230469	948.776123046875	625.6625366210938	-527.1704711914062	964.2220458984375	649.2598876953125	-463.7268371582031	1019.412719726562	639.2848510742188	-509.8148498535156	1205.830688476562	411.2455444335938	-476.1731872558594	1138.34619140625	647.496826171875	-500.3269653320312	1386.762451171875	609.8820190429688	-509.6575317382812	1331.1064453125	454.9177856445312	-426.5737609863281	1247.135620117188	648.5614013671875	-599.7027587890625	1348.752807617188	631.3442993164062	-663.990234375	1367.533203125	552.3927001953125	-733.4149169921875	1251.648071289062	579.0816040039062	-762.7808837890625	1048.615478515625	570.24755859375	-697.9849243164062	1033.01708984375	622.6188354492188	-750.2568969726562	801.6072387695312	476.7041320800781	-799.7615356445312	796.544921875	525.7656860351562	-778.6356201171875	945.293701171875	560.2222290039062	-750.1122436523438	644.33837890625	477.9171142578125	-798.5145874023438	725.8934936523438	531.233154296875	-774.1939086914062	724.0155029296875	471.0730590820312	-343.8596801757812	1376.92626953125	538.2095947265625	-279.1780090332031	1314.838989257812	546.9052124023438	-225.1958160400391	1052.744995117188	558.1414184570312	-313.4625854492188	1039.456298828125	587.5682373046875	-235.1668395996094	819.1373901367188	451.55419921875	-173.6110229492188	811.7824096679688	497.0735778808594	-206.6440277099609	985.9961547851562	537.8265991210938	-206.3916931152344	718.966552734375	430.2299499511719	-165.4848480224609	727.5192260742188	485.7602233886719	-412.8250122070312	1587.164306640625	551.6178588867188	-549.638916015625	1605.514282226562	395.7177429199219	-448.9802856445312	1599.20654296875	393.4026184082031	-554.2550048828125	1591.6865234375	582.375244140625	-372.3351135253906	925.0723876953125	430.5232849121094	-610.6243896484375	941.58203125	452.7552185058594	-693.0335693359375	467.3611450195312	462.5779113769531	-688.8911743164062	606.7378540039062	492.3388977050781	-691.5868530273438	47.01016235351562	563.4181518554688	-704.6544189453125	249.8359832763672	507.4530639648438	-682.9913330078125	44.21828460693359	348.1404418945312	-625.4472045898438	30.72250747680664	404.2255554199219	-733.6268310546875	41.45890808105469	443.917724609375	-617.8964233398438	40.95068740844727	579.0285034179688	-386.2566223144531	445.319091796875	408.0663452148438	-315.9033813476562	223.7260437011719	748.249755859375	-380.0486450195312	348.3224792480469	480.1614685058594	-385.5074157714844	42.30514144897461	698.047607421875	-416.11474609375	90.36411285400391	737.5797729492188	-303.9504089355469	124.7980880737305	716.0238037109375	-356.3994140625	267.1844482421875	783.1239624023438	-207.7345886230469	647.2830200195312	450.2166442871094	-650.2391357421875	919.97265625	582.0455322265625	-347.3125	687.97607421875	421.0996704101562	-314.9729919433594	886.8954467773438	525.0867309570312	nan	nan	nan	nan	nan	nan	nan	nan	nan	nan	nan	nan	nan	nan	nan	nan	nan	nan	
167	1.66	-404.4990844726562	949.578857421875	620.4130859375	-532.0165405273438	965.2850341796875	642.3798217773438	-469.1296081542969	1021.008178710938	633.94775390625	-510.9908447265625	1206.692260742188	404.0505065917969	-482.1106567382812	1139.684326171875	640.8733520507812	-505.8368835449219	1387.978149414062	602.4568481445312	-511.9144897460938	1332.047119140625	447.3968200683594	-432.7091064453125	1248.472412109375	642.7328491210938	-605.5326538085938	1349.948486328125	622.0055541992188	-668.1849365234375	1368.649536132812	541.6176147460938	-738.5552368164062	1253.025024414062	566.5661010742188	-769.1473388671875	1050.248168945312	556.32080078125	-705.9622192382812	1034.104125976562	610.5633544921875	-755.6953735351562	803.4111938476562	462.5764770507812	-806.7025756835938	798.6732788085938	510.1200256347656	-785.505615234375	947.1221313476562	545.6016235351562	-756.3790893554688	646.0671997070312	463.51806640625	-806.1240844726562	727.9065551757812	515.4607543945312	-780.137451171875	726.0447998046875	455.9790649414062	-347.8907165527344	1378.230224609375	533.8832397460938	-283.3988342285156	1316.330444335938	544.1111450195312	-228.8318939208984	1054.525146484375	557.557861328125	-317.6714782714844	1041.129028320312	585.2129516601562	-236.6122283935547	820.8517456054688	450.9674377441406	-176.0006713867188	813.39306640625	497.7146606445312	-209.7675628662109	987.677978515625	537.779541015625	-207.5313873291016	720.7571411132812	429.96875	-167.6109771728516	729.1468505859375	486.2137145996094	-417.3670654296875	1588.365478515625	545.5647583007812	-551.7891235351562	1606.58203125	387.5872192382812	-451.1559448242188	1600.485961914062	386.8006591796875	-559.2970581054688	1592.533081054688	574.204833984375	-374.9613037109375	926.6071166992188	425.5716247558594	-613.6271362304688	942.3555297851562	444.9575500488281	-694.4321899414062	467.1514892578125	460.0884094238281	-690.5472412109375	606.6800537109375	487.7908020019531	-691.6031494140625	47.01530838012695	563.3888549804688	-705.3885498046875	249.6046905517578	506.5160827636719	-683.0084228515625	44.15682983398438	348.1476440429688	-625.4371948242188	30.71728324890137	404.2229614257812	-733.6458740234375	41.38516998291016	443.9009094238281	-617.904052734375	41.01638412475586	579.0567016601562	-390.8168029785156	448.8192749023438	393.83984375	-327.6716918945312	224.9892120361328	734.009765625	-386.532470703125	351.1818542480469	465.3027648925781	-395.3364868164062	45.47414016723633	677.3508911132812	-427.2528076171875	92.05432891845703	717.7532348632812	-314.8984069824219	127.076286315918	699.6546630859375	-368.9166259765625	267.6464538574219	769.05322265625	-209.1892852783203	649.0199584960938	449.7175903320312	-654.3344116210938	920.7186889648438	573.9564208984375	-350.0238037109375	690.6590576171875	412.9732666015625	-318.9328308105469	887.9440307617188	520.5203247070312	nan	nan	nan	nan	nan	nan	nan	nan	nan	nan	nan	nan	nan	nan	nan	nan	nan	nan	
